<?xml version="1.0" encoding="UTF-8"?>
<!-- Generator: visioncortex VTracer 0.6.1 -->
<svg version="1.1" xmlns="http://www.w3.org/2000/svg" width="1280" height="1280">
<path d="M0 0 C422.4 0 844.8 0 1280 0 C1280 422.4 1280 844.8 1280 1280 C857.6 1280 435.2 1280 0 1280 C0 857.6 0 435.2 0 0 Z " fill="#F9FCFE" transform="translate(0,0)"/>
<path d="M0 0 C0.72610474 0.0485614 1.45220947 0.0971228 2.20031738 0.14715576 C50.42920107 3.39194163 99.86878256 10.32406593 146 25 C146.89050049 25.27851807 147.78100098 25.55703613 148.69848633 25.84399414 C173.7702488 33.73225573 206.84299465 44.5184413 220 69 C220.43183594 69.65484375 220.86367188 70.3096875 221.30859375 70.984375 C225.10893159 77.13855531 224.99288591 84.00325709 224 91 C218.509572 107.25681416 203.14502816 117.94701309 188.46875 125.33203125 C182.42372073 128.26524065 176.42509616 130.99528981 170 133 C170.56589844 132.01257813 171.13179687 131.02515625 171.71484375 130.0078125 C172.45575759 128.71355794 173.19664145 127.41928621 173.9375 126.125 C174.49727539 125.14853516 174.49727539 125.14853516 175.06835938 124.15234375 C179.14409265 117.02899009 179.52410797 112.23739511 179 104 C175.54335337 91.80007072 164.49290911 82.63754676 153.86328125 76.57421875 C143.95890479 71.14030014 134.07141314 66.46031403 123 64 C123 63.34 123 62.68 123 62 C122.1227124 61.8649707 121.2454248 61.72994141 120.34155273 61.59082031 C117.33184856 61.05867418 114.47497935 60.37323737 111.53515625 59.546875 C110.50028076 59.25989746 109.46540527 58.97291992 108.39916992 58.67724609 C107.29806885 58.37125488 106.19696777 58.06526367 105.0625 57.75 C79.84379422 50.87712486 53.36717179 44.25831588 27.171875 43.171875 C23.8371737 42.9911769 20.61355949 42.56450444 17.3125 42.0625 C3.98987689 40.07227537 -9.30716622 38.91853312 -22.76953125 38.44921875 C-23.97890854 38.40689117 -25.18828583 38.3645636 -26.43431091 38.32095337 C-39.18626989 37.91030461 -51.93351626 37.84867642 -64.69116211 37.86962891 C-68.56433004 37.87500254 -72.43738234 37.8696319 -76.31054688 37.86328125 C-99.51450058 37.85529552 -122.65395795 38.33871043 -145.75 40.6875 C-146.5961084 40.77136963 -147.4422168 40.85523926 -148.31396484 40.94165039 C-161.59658302 42.26941999 -174.80510669 43.98263495 -188 46 C-188.7899939 46.11942963 -189.57998779 46.23885925 -190.3939209 46.36190796 C-199.51574045 47.75548606 -208.48918133 49.44081214 -217.43261719 51.73022461 C-221.05112337 52.63839697 -224.27407285 53.12913725 -228 53 C-230.06720255 53.58273294 -230.06720255 53.58273294 -232 54.4375 C-234.10286933 55.31510877 -235.98860989 55.99783609 -238.23217773 56.42407227 C-261.81021685 61.33018449 -292.29075983 71.46830946 -308.6953125 89.75 C-310 91 -310 91 -312 91 C-312.43119141 91.87785156 -312.43119141 91.87785156 -312.87109375 92.7734375 C-313.55870348 94.12962277 -314.27364979 95.47294946 -315.03515625 96.7890625 C-318.40531136 102.81177314 -320.13114507 108.86650711 -318.265625 115.68359375 C-316.57593154 120.05730029 -314.48526568 124.0235749 -312 128 C-312 128.66 -312 129.32 -312 130 C-311.195625 130.28875 -310.39125 130.5775 -309.5625 130.875 C-307 132 -307 132 -306 134 C-312.51968439 132.05399948 -318.39299948 129.47625435 -324.375 126.25 C-325.20717041 125.80390381 -326.03934082 125.35780762 -326.89672852 124.89819336 C-342.07735693 116.68737115 -358.00607871 107.4489942 -363.375 90 C-365.19643811 81.15551688 -362.28901695 73.50645095 -357.7890625 65.97265625 C-339.51248231 39.29730077 -298.25485736 28.83888759 -268.96582031 20.8503418 C-266.90832318 20.26042885 -264.8651284 19.61917002 -262.8359375 18.93823242 C-259.50008368 17.83460929 -256.21086743 17.23029574 -252.75 16.625 C-246.96259334 15.59679657 -241.23545818 14.40007134 -235.5078125 13.08203125 C-226.756303 11.11078017 -217.98450944 9.46560168 -209.125 8.0625 C-208.34074646 7.93782349 -207.55649292 7.81314697 -206.74847412 7.68469238 C-138.62837551 -2.99387567 -68.71558185 -4.71410058 0 0 Z " fill="#5F85B4" transform="translate(709,552)"/>
<path d="M0 0 C1.0959549 0.13822174 1.0959549 0.13822174 2.21405029 0.27923584 C7.91609616 1.00036165 13.61505924 1.74339232 19.3125 2.5 C20.46622101 2.65246689 20.46622101 2.65246689 21.64324951 2.80801392 C50.64353975 6.66975984 84.08698741 11.86423892 110.05859375 26.0078125 C111.77256391 26.88376505 113.54416134 27.64491444 115.3203125 28.38671875 C127.60976797 33.60506066 138.48656496 41.22833947 144.09375 53.6171875 C146.39345706 59.66383107 146.25993704 63.97350122 144 70 C137.0779346 84.35687638 122.16790906 92.90450424 108 99 C105.67950551 99.74791851 103.36047168 100.38292238 101 101 C101.86625 99.700625 101.86625 99.700625 102.75 98.375 C103.11222656 97.82972656 103.47445313 97.28445313 103.84765625 96.72265625 C104.94824202 95.07737379 106.06744005 93.44458735 107.1875 91.8125 C110.0630781 87.35039605 110.77425792 83.21940926 110 78 C105.3715829 65.24363093 93.72874512 57.58366378 82 52 C68.86727292 46.17916245 54.88105645 42.56091547 41 39 C40.11038574 38.76925781 39.22077148 38.53851562 38.30419922 38.30078125 C7.86938774 30.63253327 -24.83313759 27.34956207 -56.16796875 27.08081055 C-59.05459562 26.99844214 -61.88775565 26.7471416 -64.76171875 26.46875 C-75.02901175 25.62362063 -85.33798187 26.07450199 -95.625 26.3125 C-96.71083374 26.33578369 -97.79666748 26.35906738 -98.91540527 26.38305664 C-124.93003015 26.41482055 -124.93003015 26.41482055 -150.65527344 29.5546875 C-153.9544482 30.18126963 -156.0479411 29.47602945 -159 28 C-159 28.66 -159 29.32 -159 30 C-159.95362427 30.13462646 -159.95362427 30.13462646 -160.92651367 30.27197266 C-178.77408504 32.82457748 -196.40085063 36.08624392 -214 40 C-214.77375977 40.16967285 -215.54751953 40.3393457 -216.34472656 40.51416016 C-233.79917503 44.42695916 -254.66694099 50.79291166 -268.70703125 62.19921875 C-271 64 -271 64 -273 64 C-273.37125 64.8353125 -273.37125 64.8353125 -273.75 65.6875 C-275 68 -275 68 -277 70.4375 C-280.70562699 75.18533458 -281.50871965 78.99710818 -281 85 C-279.61388523 90.68523635 -277.40046546 94.05086433 -273 98 C-272.01 99.485 -272.01 99.485 -271 101 C-276.03524376 99.71385855 -280.48245456 97.98047459 -285.0625 95.5 C-286.01999146 94.98421387 -286.01999146 94.98421387 -286.99682617 94.45800781 C-291.784176 91.81176359 -296.33915185 88.89593644 -300.8125 85.75 C-301.40490479 85.33814453 -301.99730957 84.92628906 -302.60766602 84.50195312 C-305.61776151 82.31922485 -307.72238601 80.54802356 -309 77 C-309.66 77 -310.32 77 -311 77 C-315.82680924 70.17351265 -317.21444979 64.3081986 -316 56 C-315.08085453 52.98068414 -313.79678363 50.58534071 -312 48 C-311.59910156 47.41863281 -311.19820313 46.83726562 -310.78515625 46.23828125 C-302.53969822 35.60283539 -290.01925793 30.19129386 -278 25 C-277.08726318 24.60014893 -276.17452637 24.20029785 -275.23413086 23.78833008 C-268.09047262 20.72292163 -260.89694123 18.23997336 -253.4375 16.0625 C-252.26912598 15.72114014 -251.10075195 15.37978027 -249.89697266 15.02807617 C-226.57256122 8.34587145 -202.99072734 4.31492778 -179 1 C-178.34420959 0.90936279 -177.68841919 0.81872559 -177.01275635 0.7253418 C-118.77102416 -7.28782433 -58.30964221 -7.38613545 0 0 Z " fill="#161D51" transform="translate(725,604)"/>
<path d="M0 0 C1.09920273 0.00222061 2.19840546 0.00444122 3.33091736 0.00672913 C4.57212845 0.00680466 5.81333954 0.00688019 7.09216309 0.00695801 C8.45682311 0.01206541 9.82148274 0.01728142 11.18614197 0.02259827 C12.57476755 0.02446251 13.96339379 0.02588638 15.35202026 0.02688599 C19.01319686 0.03071065 22.67433402 0.04054048 26.335495 0.05158997 C30.06890835 0.06180519 33.80232805 0.06638384 37.53575134 0.07142639 C44.86584748 0.08216281 52.19591108 0.0992386 59.52598572 0.12025452 C71.5311208 27.20773195 71.5311208 27.20773195 75.96348572 38.43275452 C76.35729431 39.41179749 76.75110291 40.39084045 77.15684509 41.39955139 C79.52585857 47.35155043 81.65663966 53.34703576 83.62828064 59.442276 C84.7561876 62.8069786 86.07496964 66.07172295 87.4158783 69.35609436 C92.39355673 81.75048082 96.85086638 94.37179235 101.43003845 106.9176178 C102.11532924 108.79265628 102.80248412 110.6670146 103.49156189 112.54066467 C108.54705885 126.28940004 113.19879352 140.12497539 117.52598572 154.12025452 C112.63165261 159.01458763 91.50788514 156.52680755 84.82945251 156.72767639 C78.21131452 156.93825981 71.71910683 157.34319053 65.151474 158.21205139 C61.8324887 158.09600727 60.18028981 157.06384487 57.52598572 155.12025452 C54.76435198 151.42312536 53.65067827 147.60949275 52.46348572 143.18275452 C51.26994361 138.77767339 50.00893878 134.43729564 48.52598572 130.12025452 C47.23295315 132.70631966 47.24680777 134.82516283 47.06114197 137.71400452 C46.98315369 138.82646545 46.90516541 139.93892639 46.82481384 141.08509827 C46.66727892 143.44161233 46.51363184 145.79838953 46.36387634 148.15541077 C46.284599 149.2678717 46.20532166 150.38033264 46.12364197 151.52650452 C46.05669128 152.55066467 45.9897406 153.57482483 45.92076111 154.63002014 C45.52598572 157.12025452 45.52598572 157.12025452 43.52598572 159.12025452 C41.75889587 159.54335022 41.75889587 159.54335022 39.56504822 159.79603577 C38.71773132 159.8995636 37.87041443 160.00309143 36.99742126 160.10975647 C36.05809753 160.21634583 35.1187738 160.32293518 34.15098572 160.43275452 C26.4385221 161.35789506 18.74554436 162.36216837 11.06114197 163.49525452 C9.41907787 163.73460765 7.77698796 163.97378375 6.13487244 164.21278381 C3.6733317 164.57117034 1.21253473 164.93289858 -1.24690247 165.3054657 C-3.56734952 165.65614636 -5.88943201 165.99304477 -8.21229553 166.32728577 C-9.26863441 166.49254761 -9.26863441 166.49254761 -10.34631348 166.66114807 C-12.04578075 166.89928745 -13.76084306 167.02053635 -15.47401428 167.12025452 C-17.47401428 165.12025452 -17.47401428 165.12025452 -17.70407104 162.19671631 C-17.68978561 160.96967484 -17.67550018 159.74263336 -17.66078186 158.47840881 C-17.65334615 157.81005099 -17.64591043 157.14169317 -17.6382494 156.45308208 C-17.52028037 149.08323681 -17.02543721 141.73902301 -16.48573303 134.38978577 C-16.38145729 132.9171944 -16.2776065 131.44457288 -16.17414856 129.97192383 C-15.89990736 126.08980131 -15.61883565 122.20820551 -15.33572006 118.32672119 C-15.16025913 115.91550604 -14.98653964 113.50417159 -14.81340027 111.0927887 C-14.04796045 100.43420106 -13.26730177 89.77680462 -12.47401428 79.12025452 C-12.39240051 78.02235596 -12.31078674 76.9244574 -12.22669983 75.79328918 C-10.93013302 58.43061544 -9.33931793 41.11199644 -7.41151428 23.80775452 C-7.32924591 23.05788269 -7.24697754 22.30801086 -7.16221619 21.53541565 C-6.92804465 19.42090578 -6.68508033 17.30761005 -6.43885803 15.19447327 C-6.30084778 13.99395325 -6.16283752 12.79343323 -6.02064514 11.55653381 C-4.21486392 0.20487207 -4.21486392 0.20487207 0 0 Z " fill="#161D51" transform="translate(500.47401428222656,385.87974548339844)"/>
<path d="M0 0 C19.8 0 39.6 0 60 0 C61.39642909 4.88750183 62.36341291 8.83203565 62.9296875 13.765625 C63.00484085 14.41642029 63.0799942 15.06721558 63.15742493 15.73773193 C63.4043179 17.90770366 63.64045738 20.07866057 63.875 22.25 C63.95859772 23.00667969 64.04219543 23.76335937 64.12832642 24.54296875 C66.36596911 44.91243508 67.86441361 65.35076995 69.37898254 85.78436279 C69.73017788 90.5116019 70.10248782 95.23574834 70.50708008 99.95874023 C71.00438913 105.87552982 71.3780227 111.79503682 71.71875 117.72265625 C71.84764899 119.9121098 71.97655547 122.10156291 72.10546875 124.29101562 C72.30339358 127.68299541 72.50072659 131.07500898 72.69775391 134.46704102 C72.89079199 137.78150011 73.08595156 141.09582968 73.28125 144.41015625 C73.338573 145.40942642 73.395896 146.40869659 73.45495605 147.43824768 C73.84071615 153.97286357 74.36930613 160.48450457 75 167 C65.52103457 166.26583697 56.15143012 164.94034763 46.75 163.5625 C44.49039774 163.23355209 42.23067521 162.90545807 39.9708252 162.57821655 C38.48781674 162.36316373 37.00498498 162.14688866 35.52233887 161.92935181 C31.90359988 161.40197586 28.28487309 160.90353808 24.65429688 160.46435547 C23.96692444 160.37959457 23.279552 160.29483368 22.5713501 160.20750427 C20.69840278 159.97948669 18.82432802 159.76078487 16.95019531 159.54272461 C14 159 14 159 11 157 C10.47583008 154.11083984 10.47583008 154.11083984 10.26953125 150.4609375 C10.18896484 149.15898438 10.10839844 147.85703125 10.02539062 146.515625 C9.95412 145.13543249 9.88316048 143.75522388 9.8125 142.375 C9.73112316 140.98690202 9.64845666 139.598879 9.56445312 138.2109375 C9.36357456 134.8078182 9.17600671 131.40448167 9 128 C8.34 128 7.68 128 7 128 C6.86078125 129.918125 6.86078125 129.918125 6.71875 131.875 C6.11976214 137.25745427 4.45205551 141.97482898 2.5 147 C2.17902344 147.85722656 1.85804688 148.71445312 1.52734375 149.59765625 C-0.83522003 155.83522003 -0.83522003 155.83522003 -2 157 C-11.88694054 157.62635328 -21.93975787 156.61440475 -31.8125 156 C-34.15629848 155.85579603 -36.50014836 155.71268671 -38.84416199 155.57202148 C-40.28904744 155.48516738 -41.73381297 155.3962836 -43.17842102 155.30493164 C-47.4586606 155.04582927 -51.71243025 154.96098726 -56 155 C-57.80043235 149.85286646 -55.92478239 146.01491633 -54.09765625 141.16796875 C-53.62825371 139.8766227 -53.62825371 139.8766227 -53.14936829 138.55918884 C-52.1313312 135.76449568 -51.09687208 132.97618334 -50.0625 130.1875 C-48.66556129 126.36770637 -47.27658956 122.54502619 -45.88671875 118.72265625 C-45.37422577 117.31907867 -45.37422577 117.31907867 -44.85137939 115.887146 C-42.22357567 108.67451421 -39.74647261 101.42633787 -37.375 94.125 C-35.23292436 87.57010308 -32.97473594 81.16114064 -30.2109375 74.8359375 C-26.56725515 66.30266851 -23.51774523 57.4982827 -20.4375 48.75 C-18.5486947 43.42151732 -16.46873611 38.21205596 -14.25390625 33.01171875 C-12.90945039 29.78251168 -11.66937302 26.52369312 -10.4375 23.25 C-8.80315897 18.95665272 -7.03902121 14.84936442 -4.91015625 10.78125 C-3.44826914 7.92021771 -2.24378736 4.96139847 -1 2 C-0.67 1.34 -0.34 0.68 0 0 Z " fill="#161D51" transform="translate(722,386)"/>
<path d="M0 0 C1.48831242 0.00667405 2.97660807 0.01863442 4.46484375 0.03515625 C5.22345703 0.03966797 5.98207031 0.04417969 6.76367188 0.04882812 C8.64326246 0.06064945 10.52281274 0.07858547 12.40234375 0.09765625 C13.46601346 2.34710881 14.52833437 4.59718399 15.58984375 6.84765625 C15.93354004 7.5754126 16.27723633 8.30316895 16.63134766 9.05297852 C19.03384043 14.15323383 21.40430687 19.26760597 23.7578125 24.390625 C24.6379173 26.30198858 25.51834038 28.21320526 26.39883423 30.12438965 C26.98439481 31.3979895 27.56836037 32.6723239 28.15072632 33.9473877 C28.97803436 35.75840616 29.81117282 37.5667577 30.64453125 39.375 C31.12776855 40.42937256 31.61100586 41.48374512 32.10888672 42.57006836 C33.28247603 45.18268797 33.28247603 45.18268797 35.40234375 47.09765625 C39.20453991 39.60020071 42.93382823 32.0724791 46.52734375 24.47265625 C46.86540039 23.75770996 47.20345703 23.04276367 47.55175781 22.30615234 C49.97868208 17.12135959 52.17447015 11.87214275 54.19921875 6.515625 C55.63100911 3.63809826 56.80611369 2.01622626 59.40234375 0.09765625 C62.78515625 -0.3984375 62.78515625 -0.3984375 66.52734375 -0.33984375 C67.76742187 -0.33855469 69.0075 -0.33726562 70.28515625 -0.3359375 C71.31382812 -0.19285156 72.3425 -0.04976562 73.40234375 0.09765625 C75.80086763 3.69544207 75.65042448 5.29723364 75.64526367 9.57275391 C75.64716202 10.22507492 75.64906036 10.87739594 75.65101624 11.54948425 C75.6547184 13.70368501 75.64402992 15.85754802 75.6328125 18.01171875 C75.6316205 19.50719157 75.63116758 21.00266515 75.63142395 22.49813843 C75.62986017 25.63031712 75.62157712 28.76238134 75.6081543 31.89453125 C75.59113522 35.91765729 75.58734084 39.94065786 75.58809948 43.96381569 C75.58782817 47.05035611 75.58235376 50.13686887 75.57509804 53.22340012 C75.57190736 54.70742966 75.56994303 56.19146235 75.56920433 57.67549515 C75.56704663 59.74416753 75.5583158 61.81270422 75.54760742 63.88134766 C75.54379562 65.06032623 75.53998383 66.23930481 75.53605652 67.45401001 C75.40234375 70.09765625 75.40234375 70.09765625 74.40234375 71.09765625 C72.0707432 71.19674927 69.73604433 71.22736129 67.40234375 71.22265625 C66.12359375 71.22523438 64.84484375 71.2278125 63.52734375 71.23046875 C60.40234375 71.09765625 60.40234375 71.09765625 59.40234375 70.09765625 C59.24230887 67.4333894 59.14291486 64.79205197 59.0859375 62.125 C59.0651564 61.32735733 59.04437531 60.52971466 59.02296448 59.707901 C58.95738217 57.15041014 58.89854408 54.59281345 58.83984375 52.03515625 C58.79666676 50.30532743 58.75305274 48.57550946 58.70898438 46.84570312 C58.60169203 42.59646365 58.50044949 38.34711735 58.40234375 34.09765625 C57.74234375 34.09765625 57.08234375 34.09765625 56.40234375 34.09765625 C56.05171875 35.27328125 55.70109375 36.44890625 55.33984375 37.66015625 C53.20865954 44.06376164 50.22906189 50.07681836 47.32519531 56.15478516 C45.84564406 59.2696711 44.4064645 62.40253486 42.96484375 65.53515625 C42.47113281 66.60636719 41.97742188 67.67757812 41.46875 68.78125 C41.11683594 69.54566406 40.76492188 70.31007813 40.40234375 71.09765625 C38.96526285 71.15188572 37.52758913 71.19055348 36.08984375 71.22265625 C34.88908203 71.25746094 34.88908203 71.25746094 33.6640625 71.29296875 C31.40234375 71.09765625 31.40234375 71.09765625 28.40234375 69.09765625 C27.19140625 66.8828125 27.19140625 66.8828125 26.02734375 64.16015625 C25.59679687 63.17144531 25.16625 62.18273437 24.72265625 61.1640625 C24.28695313 60.15214844 23.85125 59.14023437 23.40234375 58.09765625 C22.57347354 56.26230077 21.74024045 54.42890847 20.90234375 52.59765625 C20.29326172 51.24994141 20.29326172 51.24994141 19.671875 49.875 C18.78892087 47.94336804 17.88919883 46.01934897 16.9765625 44.1015625 C16.51894531 43.13089844 16.06132812 42.16023437 15.58984375 41.16015625 C15.17089844 40.28488281 14.75195312 39.40960937 14.3203125 38.5078125 C13.40234375 36.09765625 13.40234375 36.09765625 13.40234375 32.09765625 C12.74234375 32.09765625 12.08234375 32.09765625 11.40234375 32.09765625 C11.40234375 44.96765625 11.40234375 57.83765625 11.40234375 71.09765625 C6.45234375 71.09765625 1.50234375 71.09765625 -3.59765625 71.09765625 C-5.45663687 69.23867563 -4.7254329 66.14805428 -4.72705078 63.66601562 C-4.7288031 62.99447952 -4.73055542 62.32294342 -4.73236084 61.63105774 C-4.73677855 59.40114797 -4.73384167 57.17131689 -4.73046875 54.94140625 C-4.73114181 53.39823389 -4.73211186 51.85506164 -4.73336792 50.31188965 C-4.73484478 47.07363885 -4.73269072 43.83541558 -4.72802734 40.59716797 C-4.72233005 36.43723102 -4.72560912 32.27735859 -4.73159981 28.11742401 C-4.73520574 24.92966217 -4.73406669 21.74191574 -4.73147202 18.55415344 C-4.73080283 17.01988213 -4.73163086 15.48560943 -4.73395157 13.95133972 C-4.73647863 11.81062084 -4.73263679 9.67000783 -4.72705078 7.52929688 C-4.72625519 6.3087561 -4.72545959 5.08821533 -4.72463989 3.83068848 C-4.53228083 -0.30939999 -4.29022092 0.11645551 0 0 Z " fill="#171E52" transform="translate(422.59765625,741.90234375)"/>
<path d="M0 0 C0 -1.32 0 -2.64 0 -4 C2.31243792 -4.02685412 4.6249627 -4.04632841 6.9375 -4.0625 C8.22527344 -4.07410156 9.51304687 -4.08570313 10.83984375 -4.09765625 C14 -4 14 -4 15 -3 C15.10899792 -1.42676589 15.14905341 0.15131232 15.16113281 1.72827148 C15.17074036 2.73699814 15.1803479 3.74572479 15.19024658 4.78501892 C15.19449646 5.88592361 15.19874634 6.98682831 15.203125 8.12109375 C15.20882507 9.2501564 15.21452515 10.37921906 15.22039795 11.54249573 C15.22987045 13.94262754 15.23639081 16.34277249 15.24023438 18.74291992 C15.2498763 22.39069977 15.28085229 26.03790097 15.3125 29.68554688 C15.31903622 32.01822582 15.32428425 34.35090881 15.328125 36.68359375 C15.3404718 37.76628036 15.3528186 38.84896698 15.36553955 39.96446228 C15.33810115 49.44640768 13.8376944 57.78903684 7.74609375 65.30859375 C1.59279066 71.26917594 -5.99194059 72.26420909 -14.1953125 72.14453125 C-23.33112505 71.67374425 -30.30867811 67.96141861 -36.5625 61.25 C-38 59 -38 59 -38 57 C-36.25705322 56.13153169 -34.50531337 55.28069373 -32.75 54.4375 C-31.77546875 53.96183594 -30.8009375 53.48617187 -29.796875 52.99609375 C-26.85343767 51.94780252 -25.80618786 51.73933677 -23 53 C-22.113125 53.845625 -21.22625 54.69125 -20.3125 55.5625 C-17.0690116 58.38614599 -14.34818397 58.73758239 -10.1171875 58.48828125 C-6.6039447 57.67803153 -5.08264694 55.8399731 -3 53 C-0.97305713 49.14880855 -0.50548803 45.29664828 0 41 C-2.49216907 41.41536151 -4.59975082 41.77887732 -6.82421875 43.0078125 C-12.20144591 45.45990532 -18.63017548 44.87883518 -24.0546875 42.8671875 C-30.00500532 39.78721269 -35.20148733 36.59194724 -37.734375 30.125 C-40.03519939 22.16539129 -39.6948724 14.44160265 -36 7 C-32.23647118 1.666011 -28.12458753 -2.73970937 -21.75 -4.6875 C-13.07430746 -5.67337415 -7.40254217 -4.93502812 0 0 Z " fill="#161D51" transform="translate(727,770)"/>
<path d="M0 0 C4.85634901 -0.0496911 9.71254776 -0.08585664 14.5690918 -0.10986328 C16.21885763 -0.11987851 17.86860591 -0.1334946 19.51831055 -0.15087891 C21.89897005 -0.17532542 24.27939347 -0.18652803 26.66015625 -0.1953125 C27.38960953 -0.20563507 28.11906281 -0.21595764 28.87062073 -0.22659302 C34.16819263 -0.22773593 39.60327176 0.07865587 43.890625 3.515625 C48.9035711 9.91145278 52.21987722 15.67215035 52 24 C50.85319005 30.20506098 48.37074822 34.51998307 44 39 C41 41 41 41 38 41 C41.02802876 47.54054212 44.81027707 53.15240822 49 59 C50.1549329 60.66037399 51.30137513 62.32670024 52.4375 64 C52.93121094 64.721875 53.42492187 65.44375 53.93359375 66.1875 C55 68 55 68 55 70 C55.99 70.495 55.99 70.495 57 71 C54.26916098 71.13548815 51.54508193 71.23429855 48.8125 71.3125 C48.04357422 71.35439453 47.27464844 71.39628906 46.48242188 71.43945312 C42.60460426 71.5226681 40.59408988 71.41385053 37.34765625 69.15234375 C33.39538533 63.8453843 30.20057214 58.08829144 26.9921875 52.30859375 C24.34588077 47.36905596 24.34588077 47.36905596 20.02636719 44.13867188 C17.90273175 43.77115084 17.90273175 43.77115084 15 44 C15.16298584 44.54817383 15.32597168 45.09634766 15.49389648 45.66113281 C16.06803556 48.31441423 16.11273652 50.70742678 16.09765625 53.421875 C16.09443359 54.44667969 16.09121094 55.47148438 16.08789062 56.52734375 C16.07951172 57.59082031 16.07113281 58.65429688 16.0625 59.75 C16.05798828 60.82894531 16.05347656 61.90789063 16.04882812 63.01953125 C16.03705727 65.67974383 16.02061399 68.33984365 16 71 C13.52076199 71.02685095 11.0418116 71.04676547 8.5625 71.0625 C7.85544922 71.07087891 7.14839844 71.07925781 6.41992188 71.08789062 C4.61306441 71.09653588 2.80612397 71.05220011 1 71 C0 70 0 70 -0.12025452 67.22227478 C-0.11803391 65.98095291 -0.11581329 64.73963104 -0.11352539 63.46069336 C-0.11367142 62.77779739 -0.11381744 62.09490143 -0.1139679 61.39131165 C-0.11326876 59.12412386 -0.1054764 56.85701726 -0.09765625 54.58984375 C-0.09579207 53.02185613 -0.09436817 51.45386793 -0.09336853 49.88587952 C-0.08954334 45.75123497 -0.07971306 41.61662534 -0.06866455 37.48199463 C-0.05845044 33.26599602 -0.05387091 29.04999178 -0.04882812 24.83398438 C-0.03809079 16.55597353 -0.02101436 8.2779911 0 0 Z " fill="#171D51" transform="translate(356,742)"/>
<path d="M0 0 C1.27875 0.00257813 2.5575 0.00515625 3.875 0.0078125 C5.15375 0.00523437 6.4325 0.00265625 7.75 0 C10.875 0.1328125 10.875 0.1328125 11.875 1.1328125 C12.03306531 3.05760063 12.126135 4.9878046 12.19140625 6.91796875 C12.23330078 8.08779297 12.27519531 9.25761719 12.31835938 10.46289062 C12.35767578 11.69458984 12.39699219 12.92628906 12.4375 14.1953125 C12.48068359 15.43087891 12.52386719 16.66644531 12.56835938 17.93945312 C12.67484198 21.00378585 12.77685424 24.06820323 12.875 27.1328125 C16.08282086 28.08657817 18.95687396 28.24902431 22.296875 28.23046875 C23.68277832 28.22672241 23.68277832 28.22672241 25.09667969 28.22290039 C26.26102539 28.21379639 27.42537109 28.20469238 28.625 28.1953125 C32.3375 28.1746875 36.05 28.1540625 39.875 28.1328125 C40.205 18.8928125 40.535 9.6528125 40.875 0.1328125 C45.495 0.1328125 50.115 0.1328125 54.875 0.1328125 C56.875 2.1328125 56.875 2.1328125 57.12223816 4.94813538 C57.12081314 6.14869064 57.11938812 7.34924591 57.11791992 8.58618164 C57.11981827 9.2481102 57.12171661 9.91003876 57.12367249 10.59202576 C57.12738302 12.7841265 57.11667337 14.97589736 57.10546875 17.16796875 C57.10427711 18.68729107 57.10382375 20.20661413 57.1040802 21.72593689 C57.10251492 24.9111695 57.09422117 28.09628978 57.08081055 31.28149414 C57.06380618 35.3730296 57.05999658 39.46444169 57.06075573 43.55600834 C57.06048439 46.69316291 57.05500919 49.83029029 57.04775429 52.96743584 C57.04456295 54.4765852 57.04259913 55.98573766 57.04186058 57.49489021 C57.03970272 59.59959336 57.03097109 61.70416318 57.02026367 63.80883789 C57.01454597 65.6084774 57.01454597 65.6084774 57.00871277 67.44447327 C56.875 70.1328125 56.875 70.1328125 55.875 71.1328125 C53.54339945 71.23190552 51.20870058 71.26251754 48.875 71.2578125 C47.59625 71.26039063 46.3175 71.26296875 45 71.265625 C41.875 71.1328125 41.875 71.1328125 40.875 70.1328125 C40.78751793 68.20613743 40.76802666 66.27629389 40.77734375 64.34765625 C40.77984131 63.29441162 40.78233887 62.24116699 40.78491211 61.15600586 C40.79401611 59.80772705 40.80312012 58.45944824 40.8125 57.0703125 C40.8434375 50.66625 40.8434375 50.66625 40.875 44.1328125 C31.305 43.8028125 21.735 43.4728125 11.875 43.1328125 C11.875 52.3728125 11.875 61.6128125 11.875 71.1328125 C9.420625 71.1534375 6.96625 71.1740625 4.4375 71.1953125 C3.66349854 71.2044165 2.88949707 71.21352051 2.09204102 71.22290039 C0.35278283 71.23006163 -1.38645304 71.18305952 -3.125 71.1328125 C-4.98398062 69.27383188 -4.25277665 66.18321053 -4.25439453 63.70117188 C-4.25614685 63.02963577 -4.25789917 62.35809967 -4.25970459 61.66621399 C-4.2641223 59.43630422 -4.26118542 57.20647314 -4.2578125 54.9765625 C-4.25848556 53.43339014 -4.25945561 51.89021789 -4.26071167 50.3470459 C-4.26218853 47.1087951 -4.26003447 43.87057183 -4.25537109 40.63232422 C-4.2496738 36.47238727 -4.25295287 32.31251484 -4.25894356 28.15258026 C-4.26254949 24.96481842 -4.26141044 21.77707199 -4.25881577 18.58930969 C-4.25814658 17.05503838 -4.25897461 15.52076568 -4.26129532 13.98649597 C-4.26382238 11.84577709 -4.25998054 9.70516408 -4.25439453 7.56445312 C-4.25359894 6.34391235 -4.25280334 5.12337158 -4.25198364 3.86584473 C-4.0709408 -0.03068811 -3.95450583 0.1680665 0 0 Z " fill="#171E51" transform="translate(287.125,741.8671875)"/>
<path d="M0 0 C3.4375 1.5 3.4375 1.5 6 3 C6 3.66 6 4.32 6 5 C7.32 5.66 8.64 6.32 10 7 C10.47050781 6.57847656 10.94101562 6.15695312 11.42578125 5.72265625 C12.04839844 5.17480469 12.67101562 4.62695312 13.3125 4.0625 C13.92738281 3.51722656 14.54226563 2.97195313 15.17578125 2.41015625 C19.48631933 -0.92197276 24.81577669 -0.44863471 30 0 C34.6253272 1.80991064 36.61192976 4.71794301 39 9 C40.72070636 14.03659526 41.23796051 18.3739159 41.1953125 23.68359375 C41.1924826 24.38396255 41.18965271 25.08433136 41.18673706 25.80592346 C41.17564885 28.0166317 41.15056703 30.22691671 41.125 32.4375 C41.11495546 33.94725972 41.1058322 35.45702588 41.09765625 36.96679688 C41.07574714 40.64466597 41.04129758 44.3222916 41 48 C38.68756208 48.02685412 36.3750373 48.04632841 34.0625 48.0625 C32.13083984 48.07990234 32.13083984 48.07990234 30.16015625 48.09765625 C27 48 27 48 26 47 C25.87822145 45.05983776 25.82026523 43.1156049 25.7890625 41.171875 C25.76070312 39.97949219 25.73234375 38.78710938 25.703125 37.55859375 C25.6513651 35.03529875 25.60699976 32.5118404 25.5703125 29.98828125 C25.539375 28.79074219 25.5084375 27.59320312 25.4765625 26.359375 C25.4468335 24.71146973 25.4468335 24.71146973 25.41650391 23.03027344 C24.94885168 19.62787049 24.08014451 17.71674838 22 15 C19.0751102 13.71132345 19.0751102 13.71132345 16.375 14.75 C13.67505919 15.82111379 13.67505919 15.82111379 13 19 C12.84890907 21.20959253 12.75126199 23.42300047 12.68359375 25.63671875 C12.62075195 27.58481445 12.62075195 27.58481445 12.55664062 29.57226562 C12.51683013 30.94400761 12.47711784 32.31575244 12.4375 33.6875 C12.39429165 35.07097645 12.35067661 36.45444027 12.30664062 37.83789062 C12.20041972 41.22515719 12.09837642 44.61249799 12 48 C9.68756208 48.02685412 7.3750373 48.04632841 5.0625 48.0625 C3.77472656 48.07410156 2.48695313 48.08570313 1.16015625 48.09765625 C-2 48 -2 48 -3 47 C-3.13404351 45.07192266 -3.2035871 43.13929497 -3.24609375 41.20703125 C-3.27896484 40.01916016 -3.31183594 38.83128906 -3.34570312 37.60742188 C-3.40642664 35.09708588 -3.46377246 32.58666568 -3.51757812 30.07617188 C-3.56881836 28.28469727 -3.56881836 28.28469727 -3.62109375 26.45703125 C-3.6461499 25.36366455 -3.67120605 24.27029785 -3.69702148 23.14379883 C-4.01523523 19.84191459 -4.83570321 17.09634817 -6 14 C-7.27875 14.103125 -8.5575 14.20625 -9.875 14.3125 C-10.59429688 14.37050781 -11.31359375 14.42851563 -12.0546875 14.48828125 C-14.39519216 14.87393036 -14.39519216 14.87393036 -16 18 C-16.36999337 21.19990054 -16.36999337 21.19990054 -16.4140625 24.85546875 C-16.43342865 25.51710526 -16.4527948 26.17874176 -16.4727478 26.86042786 C-16.53242687 28.96932164 -16.57888087 31.07827037 -16.625 33.1875 C-16.66319066 34.61916415 -16.70224303 36.05080559 -16.7421875 37.48242188 C-16.83811773 40.98807312 -16.92219197 44.49389445 -17 48 C-19.29109597 48.08075665 -21.58299267 48.13907731 -23.875 48.1875 C-25.78925781 48.23970703 -25.78925781 48.23970703 -27.7421875 48.29296875 C-28.81726563 48.19628906 -29.89234375 48.09960938 -31 48 C-33.06907114 44.8963933 -33.24955688 44.24073531 -33.24291992 40.72802734 C-33.24599655 39.87058929 -33.24907318 39.01315125 -33.25224304 38.12973022 C-33.24505753 37.20777863 -33.23787201 36.28582703 -33.23046875 35.3359375 C-33.23001053 34.38812408 -33.22955231 33.44031067 -33.2290802 32.46377563 C-33.22605981 30.46151476 -33.21817988 28.4592562 -33.20581055 26.45703125 C-33.18753044 23.38012442 -33.18530103 20.30351801 -33.18554688 17.2265625 C-33.1806326 15.28385155 -33.17480467 13.34114264 -33.16796875 11.3984375 C-33.16685593 10.47243744 -33.1657431 9.54643738 -33.16459656 8.59237671 C-33.15821671 7.74124298 -33.15183685 6.89010925 -33.14526367 6.01318359 C-33.14145187 5.26056244 -33.13764008 4.50794128 -33.13371277 3.73251343 C-33 2 -33 2 -32 1 C-29.64686445 0.92728259 -27.29166332 0.91629132 -24.9375 0.9375 C-23.64714844 0.94652344 -22.35679687 0.95554687 -21.02734375 0.96484375 C-20.02832031 0.97644531 -19.02929688 0.98804688 -18 1 C-18 1.66 -18 2.32 -18 3 C-14.00125328 3.27500504 -14.00125328 3.27500504 -10.6875 1.5 C-6.69002853 -0.12609009 -4.2685674 -0.4656619 0 0 Z " fill="#161D51" transform="translate(844,765)"/>
<path d="M0 0 C0 -0.99 0 -1.98 0 -3 C2.12472576 -3.05386629 4.24983652 -3.09273071 6.375 -3.125 C7.55835938 -3.14820313 8.74171875 -3.17140625 9.9609375 -3.1953125 C13 -3 13 -3 15 -1 C15.22705078 2.07275391 15.22705078 2.07275391 15.1953125 5.9765625 C15.1924826 6.66181 15.18965271 7.3470575 15.18673706 8.05307007 C15.17553281 10.24389027 15.15042859 12.43430316 15.125 14.625 C15.11497048 16.1093691 15.10584458 17.5937446 15.09765625 19.078125 C15.07559294 22.71888261 15.04106176 26.35940156 15 30 C15.66 30 16.32 30 17 30 C17 30.66 17 31.32 17 32 C18.32 32.66 19.64 33.32 21 34 C21.02688151 35.64574566 21.04634123 37.29161413 21.0625 38.9375 C21.07410156 39.85402344 21.08570313 40.77054688 21.09765625 41.71484375 C21 44 21 44 20 45 C12.29822281 45.99837852 7.45394286 42.98625882 1 39 C-0.3921875 40.2065625 -0.3921875 40.2065625 -1.8125 41.4375 C-6.3578955 45.37684277 -10.8815311 45.45656652 -16.71875 45.4140625 C-23.40463424 44.57036758 -28.85468586 41.14531414 -33.5625 36.4375 C-38.11169086 28.72365463 -38.45735524 19.08768644 -36.3828125 10.421875 C-33.61278777 4.19544772 -28.12816725 -0.43591637 -22.125 -3.4375 C-13.68923643 -4.95593744 -7.55637621 -4.08847408 0 0 Z " fill="#161D51" transform="translate(544,769)"/>
<path d="M0 0 C5.45660295 -0.23004228 9.08581272 0.67289173 13.94140625 3.15234375 C14.27140625 2.49234375 14.60140625 1.83234375 14.94140625 1.15234375 C17.25384417 1.12548963 19.56636895 1.10601534 21.87890625 1.08984375 C23.16667969 1.07824219 24.45445312 1.06664062 25.78125 1.0546875 C28.94140625 1.15234375 28.94140625 1.15234375 29.94140625 2.15234375 C30.02980295 4.52802895 30.0567093 6.87443049 30.0390625 9.25 C30.03764755 9.95885849 30.0362326 10.66771698 30.03477478 11.39805603 C30.02916068 13.67036087 30.01660588 15.9425685 30.00390625 18.21484375 C29.99889306 19.75195171 29.99432984 21.2890612 29.99023438 22.82617188 C29.97918667 26.60160017 29.96191266 30.37695546 29.94140625 34.15234375 C30.72515625 34.44109375 31.50890625 34.72984375 32.31640625 35.02734375 C34.94140625 36.15234375 34.94140625 36.15234375 36.94140625 38.15234375 C37.171875 40.5 37.171875 40.5 37.12890625 43.21484375 C37.12246094 44.11332031 37.11601563 45.01179687 37.109375 45.9375 C36.94140625 48.15234375 36.94140625 48.15234375 35.94140625 49.15234375 C29.64070555 49.82741883 26.24038352 48.63487794 20.921875 45.24609375 C18.88078822 43.91062253 18.88078822 43.91062253 15.94140625 44.15234375 C14.27056806 45.4804459 12.60410912 46.81407071 10.94140625 48.15234375 C5.13494142 50.06750127 -1.07655294 49.81302402 -6.80859375 47.90234375 C-14.32452034 43.85530636 -18.97860801 40.81609334 -21.484375 32.609375 C-23.45179824 24.19094496 -21.803556 15.72728083 -17.37109375 8.33984375 C-12.19792852 3.44630907 -7.1204114 0.52693747 0 0 Z " fill="#161D51" transform="translate(648.05859375,764.84765625)"/>
<path d="M0 0 C4.88375887 4.03155933 8.38170732 9.89808465 10 16 C10 18.64 10 21.28 10 24 C-7.325 24.495 -7.325 24.495 -25 25 C-25 26.98 -25 28.96 -25 31 C-20.19033185 33.48775939 -16.47954819 34.55724219 -11 34 C-9.61808933 32.71450171 -8.23732393 31.42748684 -6.87890625 30.1171875 C-2.82790294 27.70848283 2.45909958 28.52415714 7 29 C7.99 29.495 7.99 29.495 9 30 C7.36701221 36.23504427 4.56781787 40.44861004 -1 43.8125 C-8.63808148 46.83590725 -18.35608659 47.47776759 -26.25 45 C-31.81828 42.5120451 -37.56287506 38.00405472 -40.2109375 32.46875 C-42.55058952 25.14865062 -42.32852562 18.30455298 -40 11 C-36.49514342 4.50028144 -31.73555199 0.4942208 -24.875 -2.25 C-16.61769551 -3.84818797 -7.55093571 -4.21831597 0 0 Z " fill="#161D51" transform="translate(793,768)"/>
<path d="M0 0 C5.67976156 6.28040425 8.62531809 13.53843358 9 22 C8 23 8 23 4.67358398 23.11352539 C3.19774444 23.11336629 1.72189931 23.10767314 0.24609375 23.09765625 C-0.52935287 23.0962413 -1.3047995 23.09482635 -2.10374451 23.09336853 C-4.59003494 23.08775345 -7.0762366 23.07519846 -9.5625 23.0625 C-11.24413933 23.05748694 -12.92578006 23.0529237 -14.60742188 23.04882812 C-18.73831566 23.03777913 -22.86914276 23.02050445 -27 23 C-25.89335962 27.87256032 -25.89335962 27.87256032 -23.18359375 31.90625 C-19.24668426 33.87822613 -15.27892703 33.78952196 -11 33 C-10.21625 32.175 -9.4325 31.35 -8.625 30.5 C-4.85173365 26.906413 -1.67712606 27.52341413 3.35546875 27.62890625 C6 28 6 28 8 30 C5.52498251 35.77504082 2.56420779 40.33045003 -3.2265625 43.04296875 C-12.60410213 46.21347024 -21.96478857 46.12937397 -31 42 C-36.22979209 39.03974033 -39.60549153 35.85874237 -42.25 30.4375 C-44.14799288 21.73836595 -43.84460869 13.63535415 -39 6 C-36.5 3.125 -36.5 3.125 -34 1 C-33.401875 0.443125 -32.80375 -0.11375 -32.1875 -0.6875 C-23.12198365 -6.12680981 -8.68909537 -6.06285756 0 0 Z " fill="#161E51" transform="translate(936,769)"/>
<path d="M0 0 C4.3650726 2.91231897 6.59346793 6.65296989 8.3125 11.5625 C9.07414584 17.39837859 9.1484107 23.18444699 9.1875 29.0625 C9.21927169 30.65108468 9.2531089 32.23962946 9.2890625 33.828125 C9.43617225 41.77944369 9.43617225 41.77944369 9.3125 45.5625 C8.3125 46.5625 8.3125 46.5625 5.40625 46.6953125 C4.2203125 46.69273437 3.034375 46.69015625 1.8125 46.6875 C0.6265625 46.69007813 -0.559375 46.69265625 -1.78125 46.6953125 C-4.6875 46.5625 -4.6875 46.5625 -5.6875 45.5625 C-5.83279803 44.01178056 -5.91466839 42.45500984 -5.96875 40.8984375 C-6.00613281 39.94066406 -6.04351563 38.98289062 -6.08203125 37.99609375 C-6.13423828 36.48208984 -6.13423828 36.48208984 -6.1875 34.9375 C-6.00597392 24.07317018 -6.00597392 24.07317018 -9.25 14.0625 C-12.96011274 11.7793537 -15.48431976 12.72186395 -19.6875 13.5625 C-20.77645891 17.14327593 -20.88939808 20.56718023 -21.00390625 24.296875 C-21.04580078 25.59238281 -21.08769531 26.88789062 -21.13085938 28.22265625 C-21.17066671 29.58593476 -21.21037906 30.94921606 -21.25 32.3125 C-21.29322274 33.69141875 -21.33683821 35.07032526 -21.38085938 36.44921875 C-21.48693899 39.82019306 -21.58772365 43.19133323 -21.6875 46.5625 C-26.6375 46.5625 -31.5875 46.5625 -36.6875 46.5625 C-37.87219219 38.42009176 -37.83974618 30.30293159 -37.81787109 22.09472656 C-37.81246645 19.67246373 -37.81786497 17.25038252 -37.82421875 14.828125 C-37.82355871 13.28385376 -37.82227909 11.73958263 -37.8203125 10.1953125 C-37.82233673 9.47344757 -37.82436096 8.75158264 -37.82644653 8.00784302 C-37.81193847 4.91744046 -37.67268282 2.51804845 -36.6875 -0.4375 C-32.0675 -0.4375 -27.4475 -0.4375 -22.6875 -0.4375 C-22.0275 0.8825 -21.3675 2.2025 -20.6875 3.5625 C-19.2953125 2.6034375 -19.2953125 2.6034375 -17.875 1.625 C-11.90269694 -2.23943139 -6.50719745 -2.53670409 0 0 Z " fill="#171E52" transform="translate(608.6875,766.4375)"/>
<path d="M0 0 C5.79048425 6.19037957 7.26480847 13.09057877 7.1953125 21.46484375 C7.1924826 22.14301651 7.18965271 22.82118927 7.18673706 23.51991272 C7.17565416 25.65929766 7.1505736 27.7982443 7.125 29.9375 C7.11495476 31.39908244 7.10583163 32.86067153 7.09765625 34.32226562 C7.07575425 37.88164979 7.04130866 41.44078203 7 45 C4.68756208 45.02685412 2.3750373 45.04632841 0.0625 45.0625 C-1.22527344 45.07410156 -2.51304687 45.08570313 -3.83984375 45.09765625 C-7 45 -7 45 -8 44 C-8.12177855 42.05983776 -8.17973477 40.1156049 -8.2109375 38.171875 C-8.23929688 36.97949219 -8.26765625 35.78710938 -8.296875 34.55859375 C-8.3486349 32.03529875 -8.39300024 29.5118404 -8.4296875 26.98828125 C-8.460625 25.79074219 -8.4915625 24.59320312 -8.5234375 23.359375 C-8.54325684 22.26077148 -8.56307617 21.16216797 -8.58349609 20.03027344 C-9.0476316 16.6534564 -10.00054084 14.73558153 -12 12 C-15.99597136 9.85930105 -18.30618645 11.65891041 -23 13 C-23.33 23.56 -23.66 34.12 -24 45 C-28.62 45 -33.24 45 -38 45 C-39 44 -39 44 -39.12025452 42.13340759 C-39.11803391 41.31844315 -39.11581329 40.5034787 -39.11352539 39.66381836 C-39.11344986 38.7429393 -39.11337433 37.82206024 -39.11329651 36.87327576 C-39.10813522 35.87224319 -39.10297394 34.87121063 -39.09765625 33.83984375 C-39.0962413 32.82024063 -39.09482635 31.80063751 -39.09336853 30.75013733 C-39.08775097 27.47922893 -39.0751955 24.20838787 -39.0625 20.9375 C-39.05748726 18.72591244 -39.05292396 16.51432382 -39.04882812 14.30273438 C-39.03777584 8.86846643 -39.02102063 3.43423803 -39 -2 C-36.72975032 -2.08097324 -34.45867925 -2.13917704 -32.1875 -2.1875 C-30.92292969 -2.22230469 -29.65835938 -2.25710938 -28.35546875 -2.29296875 C-25 -2 -25 -2 -23.05078125 -0.48828125 C-22.70402344 0.00285156 -22.35726562 0.49398437 -22 1 C-21.2575 0.525625 -20.515 0.05125 -19.75 -0.4375 C-13.23665408 -4.13826473 -6.32652814 -4.26352983 0 0 Z " fill="#161D51" transform="translate(993,768)"/>
<path d="M0 0 C1.09054687 0.02320313 2.18109375 0.04640625 3.3046875 0.0703125 C4.40039062 0.08835937 5.49609375 0.10640625 6.625 0.125 C7.46804688 0.14820313 8.31109375 0.17140625 9.1796875 0.1953125 C10.94484187 3.72562123 10.59039138 7.9669293 10.78515625 11.87304688 C10.68162184 15.32785264 10.68162184 15.32785264 12.1796875 18.1953125 C13.50750628 18.40135335 14.84264645 18.5616084 16.1796875 18.6953125 C20.06857639 19.08420139 20.06857639 19.08420139 21.1796875 20.1953125 C21.32225939 23.53149481 21.22196907 26.85506856 21.1796875 30.1953125 C17.5496875 30.5253125 13.9196875 30.8553125 10.1796875 31.1953125 C10.26634529 34.48830833 10.37317802 37.77846542 10.4921875 41.0703125 C10.51474609 42.00746094 10.53730469 42.94460938 10.56054688 43.91015625 C10.6137207 45.25400391 10.6137207 45.25400391 10.66796875 46.625 C10.69415283 47.45241699 10.72033691 48.27983398 10.74731445 49.13232422 C11.01065387 51.58859182 11.01065387 51.58859182 14.1796875 53.1953125 C16.50077419 53.90344064 18.83345897 54.57555402 21.1796875 55.1953125 C21.20656029 57.00773302 21.22602465 58.82026483 21.2421875 60.6328125 C21.25378906 61.64214844 21.26539063 62.65148437 21.27734375 63.69140625 C21.1796875 66.1953125 21.1796875 66.1953125 20.1796875 67.1953125 C12.05920306 68.37258207 6.80667686 67.16599429 0.23828125 62.3125 C-5.37563539 56.53879447 -5.33541571 50.45502763 -5.5078125 42.8203125 C-5.54197266 41.79808594 -5.57613281 40.77585937 -5.61132812 39.72265625 C-5.69339838 37.21365136 -5.76268126 34.70497785 -5.8203125 32.1953125 C-8.1303125 31.2053125 -10.4403125 30.2153125 -12.8203125 29.1953125 C-12.8203125 25.8953125 -12.8203125 22.5953125 -12.8203125 19.1953125 C-9.3553125 18.7003125 -9.3553125 18.7003125 -5.8203125 18.1953125 C-5.77132812 17.06351563 -5.72234375 15.93171875 -5.671875 14.765625 C-5.59684736 13.28382911 -5.52129953 11.8020595 -5.4453125 10.3203125 C-5.39890625 9.20076172 -5.39890625 9.20076172 -5.3515625 8.05859375 C-4.93443418 0.34171982 -4.93443418 0.34171982 0 0 Z " fill="#161D51" transform="translate(1017.8203125,746.8046875)"/>
<path d="M0 0 C2.75569447 2.18159145 4.43588747 3.87177494 6 7 C6.41901731 11.55278422 6.48964968 15.69426753 4.875 20 C2.37375958 22.66798978 0.58663789 23.31026195 -3 24 C-7.71120192 23.752042 -11.37060902 23.11090655 -15 20 C-16.93852134 15.32992585 -17.37538563 11.86674914 -16 7 C-12.68954112 0.06380043 -7.30592908 -1.3153277 0 0 Z " fill="#161D51" transform="translate(775,859)"/>
<path d="M0 0 C3.14436772 2.5620774 4.39455056 5.59501371 5.046875 9.55859375 C5.28740221 13.52061137 5.05242545 16.56078205 2.75 19.875 C-1.22994439 23.12393419 -4.22573267 23.87932907 -9.3125 23.375 C-12.41869571 22.47073887 -13.69074779 21.51520588 -16.3125 19.375 C-18.74387204 14.10702724 -18.57826102 9.89010158 -17.3125 4.375 C-12.9721715 -1.26742705 -6.58971622 -1.78100438 0 0 Z " fill="#181F52" transform="translate(654.3125,859.625)"/>
<path d="M0 0 C3.58093189 3.2039917 4.78763597 6.3249286 5.16796875 11.00390625 C4.87637518 14.46912286 3.24197098 16.45505997 1 19 C-2.20785018 21.35242347 -5.09649252 21.4684209 -9 21 C-12.73102291 18.95159527 -16.15093463 16.91566783 -18 13 C-17.9282304 8.47851495 -17.59361529 6.01134458 -15.3125 2.125 C-10.32593187 -2.4572518 -6.13697509 -2.6138968 0 0 Z " fill="#FAFDFF" transform="translate(722,780)"/>
<path d="M0 0 C4.05659131 0.96585507 5.22559119 3.09331745 7.37890625 6.56640625 C8.98017699 9.76894772 8.78592232 12.01955189 8.37890625 15.56640625 C6.80899582 18.45952691 5.01552978 20.59184238 2.37890625 22.56640625 C-1.95661475 23.43351045 -4.65088672 22.75541444 -8.43359375 20.69140625 C-13.33537946 17.42354911 -13.33537946 17.42354911 -14.37109375 14.31640625 C-14.80429897 9.55114881 -13.31169258 6.55914207 -10.62109375 2.69140625 C-6.89880385 0.05478424 -4.48748773 -0.2073206 0 0 Z " fill="#F9FCFE" transform="translate(535.62109375,778.43359375)"/>
<path d="M0 0 C3.57750921 2.99342608 4.74585874 5.09462177 6 9.5625 C6 13.52247592 5.47295793 14.95001856 3 18 C0.34030193 20.65969807 -1.21122473 21.86574038 -4.9375 22.5 C-9.62802823 21.73419947 -12.69060818 19.30939182 -16 16 C-17.25986755 11.38048565 -17.06977665 8.32771481 -15 4 C-10.95803458 -0.79983393 -5.90241459 -1.26964912 0 0 Z " fill="#FAFDFF" transform="translate(658,779)"/>
<path d="M0 0 C2.5850867 -0.13526616 5.16308752 -0.23417653 7.75 -0.3125 C8.47960937 -0.35439453 9.20921875 -0.39628906 9.9609375 -0.43945312 C13.86586368 -0.52820145 15.57367598 -0.40527937 18.453125 2.33203125 C20.24681293 5.42568998 21 7.4115539 21 11 C19.22960551 13.74716387 17.93708156 15.53145922 15 17 C12.62597499 17.07116382 10.24999323 17.08409085 7.875 17.0625 C6.59367187 17.05347656 5.31234375 17.04445313 3.9921875 17.03515625 C2.51105469 17.01775391 2.51105469 17.01775391 1 17 C-0.53266582 13.93466836 -0.10276471 10.73245728 -0.0625 7.375 C-0.05798828 6.66859375 -0.05347656 5.9621875 -0.04882812 5.234375 C-0.03703875 3.48954725 -0.01910324 1.744763 0 0 Z " fill="#FAFDFF" transform="translate(372,756)"/>
<path d="M0 0 C0.86882813 0.01417969 1.73765625 0.02835938 2.6328125 0.04296875 C3.49648438 0.04941406 4.36015625 0.05585937 5.25 0.0625 C7.59884975 0.21982171 9.54865345 0.4206035 11.7578125 1.23046875 C13.6953125 3.98046875 13.6953125 3.98046875 14.7578125 7.23046875 C14.2834375 7.95234375 13.8090625 8.67421875 13.3203125 9.41796875 C10.79129058 13.97020821 12.56987506 18.3505243 13.7578125 23.23046875 C11.84375 22.9140625 11.84375 22.9140625 9.7578125 22.23046875 C9.0771875 20.77640625 9.0771875 20.77640625 8.3828125 19.29296875 C7.01718806 15.94825833 7.01718806 15.94825833 3.5703125 14.85546875 C2.178125 14.54609375 2.178125 14.54609375 0.7578125 14.23046875 C0.7578125 17.20046875 0.7578125 20.17046875 0.7578125 23.23046875 C-0.5621875 22.90046875 -1.8821875 22.57046875 -3.2421875 22.23046875 C-3.46750722 18.93973213 -3.66954732 15.64797456 -3.8671875 12.35546875 C-3.93164062 11.41832031 -3.99609375 10.48117187 -4.0625 9.515625 C-4.1140625 8.61972656 -4.165625 7.72382812 -4.21875 6.80078125 C-4.27111816 5.97336426 -4.32348633 5.14594727 -4.37744141 4.29345703 C-4.17330395 1.17980803 -3.04118023 0.31259518 0 0 Z " fill="#171E51" transform="translate(554.2421875,858.76953125)"/>
<path d="M0 0 C2.33203125 0.0625 2.33203125 0.0625 5 1 C6.94921875 3.6875 6.94921875 3.6875 8.6875 7 C10.61498165 11.21995179 10.61498165 11.21995179 14 14 C14.33 9.71 14.66 5.42 15 1 C15.99 0.67 16.98 0.34 18 0 C19.2263757 2.45275141 19.11415314 4.0505781 19.09765625 6.7890625 C19.09443359 7.73007812 19.09121094 8.67109375 19.08789062 9.640625 C19.07951172 10.62546875 19.07113281 11.6103125 19.0625 12.625 C19.05798828 13.61757813 19.05347656 14.61015625 19.04882812 15.6328125 C19.03702145 18.0886016 19.020554 20.54427104 19 23 C16.23828125 23.29296875 16.23828125 23.29296875 13 23 C10.91796875 20.98828125 10.91796875 20.98828125 9.1875 18.3125 C8.60355469 17.44238281 8.01960937 16.57226562 7.41796875 15.67578125 C6.02763837 13.05215504 5.40570385 10.92422903 5 8 C4.34 8 3.68 8 3 8 C3.26103516 8.81210937 3.26103516 8.81210937 3.52734375 9.640625 C4.09766505 12.48751809 3.87137301 14.86718522 3.5625 17.75 C3.46066406 18.73484375 3.35882812 19.7196875 3.25390625 20.734375 C3.17011719 21.48203125 3.08632813 22.2296875 3 23 C1.68 22.67 0.36 22.34 -1 22 C-1.02887814 18.52085059 -1.04675687 15.04173169 -1.0625 11.5625 C-1.07087891 10.56927734 -1.07925781 9.57605469 -1.08789062 8.55273438 C-1.09111328 7.60849609 -1.09433594 6.66425781 -1.09765625 5.69140625 C-1.10289307 4.81685791 -1.10812988 3.94230957 -1.11352539 3.04125977 C-1 1 -1 1 0 0 Z " fill="#182053" transform="translate(791,859)"/>
<path d="M0 0 C0.99 0.66 1.98 1.32 3 2 C3.38578924 5.44242708 3.48503487 8.77713502 3.52734375 12.234375 C3.5871352 14.16176991 3.78523937 16.08367434 4 18 C6.70332305 20.28600028 6.70332305 20.28600028 9.125 19.6875 C10.98593853 19.15421514 10.98593853 19.15421514 12 18 C12.23701239 15.14122091 12.42219182 12.30116703 12.5625 9.4375 C12.60568359 8.63119141 12.64886719 7.82488281 12.69335938 6.99414062 C12.79975262 4.99631195 12.90040888 2.9981793 13 1 C14.32 1 15.64 1 17 1 C19.19675709 5.39351418 18.32628265 11.2048103 18 16 C16.83092765 19.44876342 16.03686529 21.11674439 13.3125 23.4375 C9.77783839 24.29728255 6.39327397 24.25747024 3 23 C-0.75431059 20.18157772 -1.88786201 18.78653427 -2.55859375 14.08203125 C-2.54410676 12.65835557 -2.50314163 11.23473538 -2.4375 9.8125 C-2.43169922 9.08869141 -2.42589844 8.36488281 -2.41992188 7.61914062 C-2.29613095 2.29613095 -2.29613095 2.29613095 0 0 Z " fill="#181F52" transform="translate(470,859)"/>
<path d="M0 0 C0.99 0.66 1.98 1.32 3 2 C3.2208564 4.95064148 3.28060989 7.68368231 3.1875 10.625 C3.17396484 11.42679688 3.16042969 12.22859375 3.14648438 13.0546875 C3.11109051 15.03674378 3.05728234 17.01845551 3 19 C7.61507774 20.04214691 7.61507774 20.04214691 12 19 C12.495 10.09 12.495 10.09 13 1 C14.32 1 15.64 1 17 1 C17.08710289 4.10398978 17.14042309 7.20766548 17.1875 10.3125 C17.21263672 11.19357422 17.23777344 12.07464844 17.26367188 12.98242188 C17.27333984 13.82998047 17.28300781 14.67753906 17.29296875 15.55078125 C17.3086792 16.33106689 17.32438965 17.11135254 17.34057617 17.9152832 C16.91242861 20.53603732 16.06420041 21.38376301 14 23 C9.54575064 24.34051695 5.86766529 24.30988046 1.5 22.75 C-1 21 -1 21 -2 18 C-2.07973476 16.66474283 -2.10771338 15.32587917 -2.09765625 13.98828125 C-2.09443359 13.23095703 -2.09121094 12.47363281 -2.08789062 11.69335938 C-2.07951172 10.90767578 -2.07113281 10.12199219 -2.0625 9.3125 C-2.05798828 8.51521484 -2.05347656 7.71792969 -2.04882812 6.89648438 C-2.0370585 4.93095743 -2.01912348 2.96546915 -2 1 C-1.34 0.67 -0.68 0.34 0 0 Z " fill="#161D51" transform="translate(694,859)"/>
<path d="M0 0 C2.29109597 -0.08075665 4.58299267 -0.13907731 6.875 -0.1875 C8.78925781 -0.23970703 8.78925781 -0.23970703 10.7421875 -0.29296875 C11.81726563 -0.19628906 12.89234375 -0.09960938 14 0 C14.66 0.99 15.32 1.98 16 3 C14.33657163 4.66342837 12.2174291 4.36048097 9.9375 4.5625 C9.01839844 4.64628906 8.09929688 4.73007812 7.15234375 4.81640625 C6.08693359 4.90728516 6.08693359 4.90728516 5 5 C5 6.65 5 8.3 5 10 C6.27875 9.979375 7.5575 9.95875 8.875 9.9375 C12.75 9.875 12.75 9.875 15 11 C15 11.66 15 12.32 15 13 C9.555 13.495 9.555 13.495 4 14 C4.33 15.98 4.66 17.96 5 20 C5.69867187 19.96519531 6.39734375 19.93039062 7.1171875 19.89453125 C8.02726563 19.86746094 8.93734375 19.84039063 9.875 19.8125 C10.77992188 19.77769531 11.68484375 19.74289062 12.6171875 19.70703125 C13.79667969 19.85205078 13.79667969 19.85205078 15 20 C15.66 20.99 16.32 21.98 17 23 C11.39 23 5.78 23 0 23 C-0.90992305 20.27023085 -1.12844593 18.64911026 -1.1328125 15.83984375 C-1.13410156 15.04642578 -1.13539063 14.25300781 -1.13671875 13.43554688 C-1.13285156 12.61119141 -1.12898437 11.78683594 -1.125 10.9375 C-1.12886719 10.10927734 -1.13273438 9.28105469 -1.13671875 8.42773438 C-1.13542969 7.63560547 -1.13414062 6.84347656 -1.1328125 6.02734375 C-1.13168457 5.30281006 -1.13055664 4.57827637 -1.12939453 3.83178711 C-1 2 -1 2 0 0 Z " fill="#181F52" transform="translate(577,859)"/>
<path d="M0 0 C1.94140625 0.46875 1.94140625 0.46875 4.44140625 3.46875 C5.18390625 4.95375 5.18390625 4.95375 5.94140625 6.46875 C4.95140625 6.79875 3.96140625 7.12875 2.94140625 7.46875 C2.30203125 6.97375 1.66265625 6.47875 1.00390625 5.96875 C-0.93103348 4.2172267 -0.93103348 4.2172267 -3.24609375 4.65625 C-5.25061725 5.32509883 -5.25061725 5.32509883 -6.05859375 7.46875 C-3.67632131 8.75151208 -1.55817359 9.60886765 1.06640625 10.34375 C3.94140625 11.46875 3.94140625 11.46875 5.31640625 13.21875 C6.14606339 16.2055157 6.40053391 18.3860357 5.94140625 21.46875 C3.70502149 23.63524774 2.10360511 24.43422924 -1.03125 24.52734375 C-5.06201577 24.17323909 -8.21054644 23.55413459 -11.05859375 20.46875 C-11.05859375 19.47875 -11.05859375 18.48875 -11.05859375 17.46875 C-10.06859375 17.13875 -9.07859375 16.80875 -8.05859375 16.46875 C-8.05859375 17.12875 -8.05859375 17.78875 -8.05859375 18.46875 C-3.52026622 20.28477517 -3.52026622 20.28477517 0.94140625 19.46875 C0.61140625 17.81875 0.28140625 16.16875 -0.05859375 14.46875 C-1.38890625 14.3759375 -1.38890625 14.3759375 -2.74609375 14.28125 C-6.79941367 13.28703945 -8.35691124 11.56773876 -11.05859375 8.46875 C-9.19952897 1.89052079 -7.12597194 -0.1049867 0 0 Z " fill="#181E52" transform="translate(830.05859375,858.53125)"/>
<path d="M0 0 C2.0625 1.8125 2.0625 1.8125 3 4 C3 4.99 3 5.98 3 7 C2.01 7 1.02 7 0 7 C0 6.34 0 5.68 0 5 C-2.64 4.67 -5.28 4.34 -8 4 C-7.01910577 6.44712676 -6.399361 7.75289538 -4.125 9.16015625 C-3.073125 9.60681641 -3.073125 9.60681641 -2 10.0625 C1.26360688 11.46033162 1.91727014 11.87590522 4 15 C4.125 18.1875 4.125 18.1875 4 21 C-0.8513175 23.42565875 -3.5848565 24.56437479 -9 23 C-11.375 21.9375 -11.375 21.9375 -13 21 C-13 19.68 -13 18.36 -13 17 C-10.56022281 17.56302551 -8.25050967 18.25482671 -5.875 19.0625 C-3.18708882 20.1033402 -3.18708882 20.1033402 -1 20 C-1.42930551 17.57759202 -1.42930551 17.57759202 -3 15 C-4.9821372 13.76116425 -6.98041706 12.82095954 -9.125 11.89453125 C-11 11 -11 11 -13 9 C-13.49914154 5.83877026 -13.26112354 4.42006831 -11.5625 1.6875 C-7.82147738 -0.77610026 -4.3581377 -0.83365892 0 0 Z " fill="#161D51" transform="translate(625,859)"/>
<path d="M0 0 C0.66 0.33 1.32 0.66 2 1 C2.26458775 4.13347494 2.3667042 7.22263913 2.390625 10.36523438 C2.5123934 13.82548651 2.7738212 15.70415627 4.90234375 18.48828125 C6.86602475 20.23809095 6.86602475 20.23809095 9.1875 19.875 C11.18560131 19.13800752 11.18560131 19.13800752 12 17 C12.2322646 14.28737884 12.41936235 11.59226874 12.5625 8.875 C12.60568359 8.12089844 12.64886719 7.36679687 12.69335938 6.58984375 C12.7994832 4.72678112 12.90025001 2.86341476 13 1 C13.99 1 14.98 1 16 1 C18.10264973 3.10264973 17.27690374 7.42445686 17.3125 10.3125 C17.34150391 11.08529297 17.37050781 11.85808594 17.40039062 12.65429688 C17.44257807 16.42845081 17.46265134 18.3658486 15.1875 21.484375 C12.05767136 23.65289913 9.7955678 23.93566834 6 24 C3.31281001 23.30292695 1.47062668 22.38355094 -1 21 C-2.23915102 17.28254693 -2.18407713 13.80876619 -2.1875 9.9375 C-2.19974609 9.20466797 -2.21199219 8.47183594 -2.22460938 7.71679688 C-2.22986299 5.80973493 -2.12218272 3.90315114 -2 2 C-1.34 1.34 -0.68 0.68 0 0 Z " fill="#161D51" transform="translate(524,859)"/>
<path d="M0 0 C2.64842882 3.8522601 4.41410567 6.49219019 4 11.25 C3 15 3 15 1.1875 17.0625 C-1 18 -1 18 -3 17.8125 C-3.66 17.544375 -4.32 17.27625 -5 17 C-6.02287109 16.61328125 -6.02287109 16.61328125 -7.06640625 16.21875 C-9 15 -9 15 -9.71484375 13.01171875 C-10.08931862 9.10272669 -10.29073677 6.66454119 -8.6875 3 C-5.96421379 -0.22759847 -4.06090477 -0.10686592 0 0 Z " fill="#FAFDFF" transform="translate(773,862)"/>
<path d="M0 0 C1.1653125 -0.02578125 2.330625 -0.0515625 3.53125 -0.078125 C5.00078125 0.08429687 5.00078125 0.08429687 6.5 0.25 C7.16 1.24 7.82 2.23 8.5 3.25 C7.5 4.25 7.5 4.25 4.99609375 4.34765625 C3.48208984 4.33025391 3.48208984 4.33025391 1.9375 4.3125 C0.92558594 4.30347656 -0.08632813 4.29445313 -1.12890625 4.28515625 C-2.30259766 4.26775391 -2.30259766 4.26775391 -3.5 4.25 C-3.17 6.23 -2.84 8.21 -2.5 10.25 C-0.48177083 10.15234375 1.53645833 10.0546875 3.5546875 9.95703125 C4.19664062 10.05371094 4.83859375 10.15039062 5.5 10.25 C6.49 11.735 6.49 11.735 7.5 13.25 C2.055 13.745 2.055 13.745 -3.5 14.25 C-3.5 17.22 -3.5 20.19 -3.5 23.25 C-5.15 22.92 -6.8 22.59 -8.5 22.25 C-8.5 15.32 -8.5 8.39 -8.5 1.25 C-5.65504507 -0.17247747 -3.1688204 0.04206399 0 0 Z " fill="#181F52" transform="translate(452.5,858.75)"/>
<path d="M0 0 C2.09862781 1.80916191 2.87394527 3.15905957 3.28515625 5.90234375 C3.42552183 9.17957491 3.23078235 11.48715033 1.875 14.5 C0 16 0 16 -2.9375 16.5 C-6 16 -6 16 -8.375 14.4375 C-10.61768434 11.0734735 -10.488013 8.97382014 -10 5 C-7.50044605 -0.22634008 -5.68627694 -1.80296586 0 0 Z " fill="#FAFDFF" transform="translate(651,863)"/>
<path d="M0 0 C2.95887459 -0.08069658 5.9155659 -0.14034665 8.875 -0.1875 C9.71675781 -0.21263672 10.55851562 -0.23777344 11.42578125 -0.26367188 C12.23144531 -0.27333984 13.03710938 -0.28300781 13.8671875 -0.29296875 C14.98262939 -0.31653442 14.98262939 -0.31653442 16.12060547 -0.34057617 C17.05090576 -0.17199097 17.05090576 -0.17199097 18 0 C18.66 0.99 19.32 1.98 20 3 C19.67 3.33 19.34 3.66 19 4 C16.69 4 14.38 4 12 4 C12 10.27 12 16.54 12 23 C10.35 22.67 8.7 22.34 7 22 C6.67 16.39 6.34 10.78 6 5 C4.02 4.34 2.04 3.68 0 3 C0 2.01 0 1.02 0 0 Z " fill="#1B2254" transform="translate(495,859)"/>
<path d="M0 0 C5.94 0 11.88 0 18 0 C18.33 1.32 18.66 2.64 19 4 C16.69 4.66 14.38 5.32 12 6 C11.67 11.61 11.34 17.22 11 23 C9.68 22.67 8.36 22.34 7 22 C7 16.39 7 10.78 7 5 C4.69 4.34 2.38 3.68 0 3 C0 2.01 0 1.02 0 0 Z " fill="#1A2154" transform="translate(719,859)"/>
<path d="M0 0 C1.98 0.99 1.98 0.99 4 2 C4.33 7.94 4.66 13.88 5 20 C8.3 20 11.6 20 15 20 C15.33 20.99 15.66 21.98 16 23 C13.52076199 23.02685095 11.0418116 23.04676547 8.5625 23.0625 C7.85544922 23.07087891 7.14839844 23.07925781 6.41992188 23.08789062 C4.61306441 23.09653588 2.80612397 23.05220011 1 23 C0 22 0 22 -0.11352539 19.86694336 C-0.10828857 18.95050049 -0.10305176 18.03405762 -0.09765625 17.08984375 C-0.09443359 16.10048828 -0.09121094 15.11113281 -0.08789062 14.09179688 C-0.07951172 13.05087891 -0.07113281 12.00996094 -0.0625 10.9375 C-0.05798828 9.89271484 -0.05347656 8.84792969 -0.04882812 7.77148438 C-0.03699913 5.1809334 -0.02051689 2.59049441 0 0 Z " fill="#161D51" transform="translate(668,859)"/>
<path d="M0 0 C1.98 0.495 1.98 0.495 4 1 C4 8.26 4 15.52 4 23 C2.35 22.67 0.7 22.34 -1 22 C-1.02895225 18.70835171 -1.0467823 15.41673601 -1.0625 12.125 C-1.07506836 10.71927734 -1.07506836 10.71927734 -1.08789062 9.28515625 C-1.09111328 8.38925781 -1.09433594 7.49335937 -1.09765625 6.5703125 C-1.10289307 5.74289551 -1.10812988 4.91547852 -1.11352539 4.06298828 C-1 2 -1 2 0 0 Z " fill="#1D2455" transform="translate(746,859)"/>
<path d="M0 0 C2.3125 1.875 2.3125 1.875 4 4 C4 4.66 4 5.32 4 6 C4.66 6.33 5.32 6.66 6 7 C-0.27 7 -6.54 7 -13 7 C-12.67 5.68 -12.34 4.36 -12 3 C-8.07173835 0.88478219 -4.48919901 -0.84930792 0 0 Z " fill="#F5F9FC" transform="translate(782,776)"/>
<path d="M0 0 C0.66 0 1.32 0 2 0 C2.78886903 6.24834362 3.15545836 12.33027153 3.125 18.625 C3.12886719 19.43195312 3.13273438 20.23890625 3.13671875 21.0703125 C3.12901131 25.81809802 2.79081478 30.31787442 2 35 C1.34 35 0.68 35 0 35 C0 23.45 0 11.9 0 0 Z " fill="#3D426A" transform="translate(571,769)"/>
<path d="M0 0 C3 3.44444444 3 3.44444444 3 6 C-3.27 6 -9.54 6 -16 6 C-11.48004741 0.35005927 -11.48004741 0.35005927 -7.4375 -0.375 C-6.29087891 -0.60316406 -6.29087891 -0.60316406 -5.12109375 -0.8359375 C-3 -1 -3 -1 0 0 Z " fill="#F7FAFD" transform="translate(925,777)"/>
<path d="M0 0 C2.875 -0.125 2.875 -0.125 6 0 C6.66 0.66 7.32 1.32 8 2 C7.625 4.625 7.625 4.625 7 7 C4.625 7.125 4.625 7.125 2 7 C0 5 0 5 -0.125 2.375 C-0.08375 1.59125 -0.0425 0.8075 0 0 Z " fill="#FAFDFF" transform="translate(555,863)"/>
</svg>
